<svg xmlns="http://www.w3.org/2000/svg" viewBox="0 0 83.61 92.5"><defs><style>.cls-1{fill:#096;}.cls-2{fill:#fc0;}</style></defs><g id="Слой_2" data-name="Слой 2"><g id="OBJECTS"><path class="cls-1" d="M83,66.52,72.53,80.32,62.06,66.52a3,3,0,1,1,4.85-3.67l2.58,3.4v-11C69.49,38,55.93,23.51,38.69,23a31.74,31.74,0,0,0-32.6,32.6c.49,17.24,15,30.79,32.22,30.79H50.85a3,3,0,1,1,0,6.08H38.46C17.56,92.5-.11,75.41,0,54.51A37.82,37.82,0,0,1,37.57,16.94c20.9-.12,38,17.56,38,38.46V66.25l2.58-3.4A3,3,0,1,1,83,66.52Z"/><path class="cls-2" d="M36.76,55.69V40.52a3,3,0,0,0-3-3h0a3,3,0,0,0-3,3V61.73H51.93a3,3,0,0,0,3-3h0a3,3,0,0,0-3-3Z"/><path class="cls-1" d="M12.31,1.75h7.25A12.76,12.76,0,0,1,32.32,14.52v1.11a0,0,0,0,1,0,0H-.45a0,0,0,0,1,0,0V14.52A12.76,12.76,0,0,1,12.31,1.75Z" transform="translate(-2.08 6.5) rotate(-21.68)"/><path class="cls-1" d="M45.49,1.75H78.27a0,0,0,0,1,0,0V2.87A12.76,12.76,0,0,1,65.51,15.63H58.26A12.76,12.76,0,0,1,45.49,2.87V1.75a0,0,0,0,1,0,0Z" transform="translate(116.17 39.63) rotate(-158.32)"/></g></g></svg>