<svg xmlns="http://www.w3.org/2000/svg" viewBox="0 0 103.45 83.85"><defs><style>.cls1-1{fill:#fc0;}.cls1-2{fill:#fdffff;}.cls1-3{fill:#096;}</style></defs><g id="Слой_2" data-name="Слой 2"><g id="OBJECTS"><path class="cls1-1" d="M30.22,63.57H71.78A8.53,8.53,0,0,0,80.31,55V28.74a8.53,8.53,0,0,0-8.53-8.54H42.18V16.82a8.82,8.82,0,0,1,17.31-2.38,4,4,0,1,0,7.71-2.15,16.82,16.82,0,0,0-33,4.53V20.2h-4a8.53,8.53,0,0,0-8.53,8.54V55A8.53,8.53,0,0,0,30.22,63.57Zm21.69-31a6.45,6.45,0,0,1,3.26,12v5a3.27,3.27,0,0,1-6.53,0v-5a6.45,6.45,0,0,1,3.27-12Z"/><path class="cls1-2" d="M48.64,44.58v5a3.27,3.27,0,0,0,6.53,0v-5a6.46,6.46,0,1,0-6.53,0Z"/><path class="cls1-3" d="M99.45,43.28a4,4,0,0,0-4,4v25.1A3.48,3.48,0,0,1,92,75.85H11.47A3.48,3.48,0,0,1,8,72.38V47.28a4,4,0,0,0-8,0v25.1A11.48,11.48,0,0,0,11.47,83.85H92a11.48,11.48,0,0,0,11.48-11.47V47.28A4,4,0,0,0,99.45,43.28Z"/></g></g></svg>