<svg xmlns="http://www.w3.org/2000/svg" viewBox="0 0 103.45 86.23"><defs><style>.cls2-1{fill:none;}.cls2-2{fill:#fc0;}.cls2-3{fill:#fdffff;}.cls2-4{fill:#096;}</style></defs><g id="Слой_2" data-name="Слой 2"><g id="OBJECTS"><path class="cls2-1" d="M61.27,17.54a9.55,9.55,0,0,0-19.09,0v3.59H61.27Z"/><path class="cls2-2" d="M29.76,67H73.69a9,9,0,0,0,9-9V30.14a9,9,0,0,0-9-9H69.27V17.54a17.55,17.55,0,0,0-35.09,0v3.59H29.76a9,9,0,0,0-9,9v27.8A9,9,0,0,0,29.76,67ZM60.34,47a4,4,0,1,1-5.65,5.66l-3-3-3,3A4,4,0,0,1,43.1,47l3-3-3-3a4,4,0,0,1,5.66-5.66l3,3,3-3a4,4,0,0,1,5.65,5.66l-3,3ZM42.18,17.54a9.55,9.55,0,0,1,19.09,0v3.59H42.18Z"/><path class="cls2-3" d="M60.34,35.42a4,4,0,0,0-5.65,0l-3,3-3-3a4,4,0,0,0-5.66,5.66l3,3-3,3a4,4,0,0,0,5.66,5.66l3-3,3,3A4,4,0,0,0,60.34,47l-3-3,3-3A4,4,0,0,0,60.34,35.42Z"/><path class="cls2-4" d="M99.45,45.66a4,4,0,0,0-4,4v25.1A3.48,3.48,0,0,1,92,78.23H11.47A3.48,3.48,0,0,1,8,74.76V49.66a4,4,0,0,0-8,0v25.1A11.49,11.49,0,0,0,11.47,86.23H92a11.49,11.49,0,0,0,11.48-11.47V49.66A4,4,0,0,0,99.45,45.66Z"/></g></g></svg>